<svg t="1755070722043" class="icon" viewBox="0 0 1024 1024" version="1.1" xmlns="http://www.w3.org/2000/svg" p-id="1627" width="32" height="32"><path d="M740.266667 287.402667c0-15.488 2.645333-30.378667 7.509333-44.288a363.178667 363.178667 0 0 0-123.434667-68.693334A136.704 136.704 0 0 1 512 232.874667a136.746667 136.746667 0 0 1-112.384-58.368 363.178667 363.178667 0 0 0-123.434667 68.693333c4.864 13.866667 7.552 28.757333 7.552 44.245333 0 69.973333-53.589333 127.146667-121.941333 134.4a356.992 356.992 0 0 0-8.277333 148.053334c72.234667 3.242667 130.218667 62.293333 130.218666 135.04a133.546667 133.546667 0 0 1-20.394666 70.912 363.221333 363.221333 0 0 0 126.848 76.714666A136.661333 136.661333 0 0 1 512 778.453333c53.12 0 99.242667 30.037333 121.770667 74.069334a363.093333 363.093333 0 0 0 126.848-76.714667 133.546667 133.546667 0 0 1-20.352-70.912c0-72.746667 57.941333-131.797333 130.176-135.082667a357.376 357.376 0 0 0-8.277334-148.053333c-68.352-7.210667-121.898667-64.384-121.898666-134.357333z m42.666666 0c0 50.858667 41.813333 92.586667 93.866667 92.586666l1.322667-0.085333 3.456 0.256a21.333333 21.333333 0 0 1 17.152 14.634667 398.208 398.208 0 0 1 10.325333 201.130666 21.333333 21.333333 0 0 1-22.912 16.896 96.170667 96.170667 0 0 0-9.386667-0.426666c-52.053333 0-93.866667 41.642667-93.866666 92.501333 0 22.656 8.32 43.392 22.058666 59.52a21.333333 21.333333 0 0 1-0.938666 28.757333 406.058667 406.058667 0 0 1-176.213334 106.24 21.333333 21.333333 0 0 1-26.325333-13.909333A93.781333 93.781333 0 0 0 512 821.12c-41.984 0-77.397333 27.136-89.472 64.384a21.333333 21.333333 0 0 1-26.325333 13.909333 406.058667 406.058667 0 0 1-176.213334-106.24 21.333333 21.333333 0 0 1-0.938666-28.757333 91.306667 91.306667 0 0 0 22.016-59.52c0-50.858667-41.813333-92.501333-93.866667-92.544-3.157333 0-6.272 0.170667-9.344 0.469333a21.333333 21.333333 0 0 1-22.954667-16.896 398.378667 398.378667 0 0 1 10.368-201.130666l1.28-3.2a21.333333 21.333333 0 0 1 19.328-11.690667l1.322667 0.042667c52.053333 0 93.866667-41.685333 93.866667-92.544 0-14.634667-3.413333-28.458667-9.557334-40.746667a21.333333 21.333333 0 0 1 4.693334-25.258667 406.016 406.016 0 0 1 167.509333-92.629333l3.626667-0.682667a21.333333 21.333333 0 0 1 20.949333 11.477334A93.994667 93.994667 0 0 0 512 190.165333c36.608 0 68.224-20.608 83.712-50.602666l2.005333-3.157334a21.333333 21.333333 0 0 1 22.613334-7.68 405.973333 405.973333 0 0 1 167.509333 92.672 21.333333 21.333333 0 0 1 4.693333 25.258667 90.965333 90.965333 0 0 0-9.6 40.746667z" fill="#252525" p-id="1628"></path><path d="M627.2 514.133333a115.2 115.2 0 1 1-230.4 0 115.2 115.2 0 0 1 230.4 0z" fill="#1B7AFE" p-id="1629"></path><path d="M512 313.6a200.533333 200.533333 0 1 1 0 401.066667 200.533333 200.533333 0 0 1 0-401.066667z m0 85.333333a115.2 115.2 0 1 0 0 230.4 115.2 115.2 0 0 0 0-230.4z" fill="#1B7AFE" p-id="1630"></path><path d="M627.2 514.133333a115.2 115.2 0 1 1-230.4 0 115.2 115.2 0 0 1 230.4 0z" fill="#1B7AFE" p-id="1631"></path><path d="M512 356.266667a157.866667 157.866667 0 1 1 0 315.776 157.866667 157.866667 0 0 1 0-315.776z m0 42.666666a115.2 115.2 0 1 0 0 230.4 115.2 115.2 0 0 0 0-230.4z" fill="#252525" p-id="1632"></path></svg>